<?xml version="1.0" encoding="UTF-8"?>
<svg id="Layer_1" data-name="Layer 1" xmlns="http://www.w3.org/2000/svg" viewBox="0 0 340 334">
  <defs>
    <style>
      .cls-1 {
        fill: #007ace;
      }

      .cls-2 {
        fill: #4fcfff;
      }

      .cls-3 {
        fill: #36c2cf;
      }
    </style>
  </defs>
  <path class="cls-2" d="M340,170c0,65.62-37.18,122.56-91.63,150.89-6.63,2.45-13.78,1.64-17.87-2.39-5.98-5.89-5.62-18.84,4.13-26.95,12.94-7.47,52.09-32.01,67.18-80.28,4.02-12.87,6.19-26.57,6.19-40.77,0-75.39-61.11-136.5-136.5-136.5S35,95.11,35,170.5c0,12.99,1.81,25.55,5.2,37.45,6.14,9.58,2.38,22.11-6.7,26.55-8.33,4.07-19.43,.52-24.14-8.74C4.38,212.42,0,193.11,0,170,0,76.11,76.11,0,170,0s170,76.11,170,170Z"/>
  <circle class="cls-2" cx="49" cy="263" r="17"/>
  <circle class="cls-2" cx="94" cy="299" r="17"/>
  <circle class="cls-2" cx="150" cy="317" r="17"/>
  <polygon class="cls-3" points="111.5 69 111.5 259.76 141.12 260.95 141.12 183.93 162.45 183.93 174.3 150.75 142.31 150.75 142.31 69 111.5 69"/>
  <polygon class="cls-1" points="234.72 264.5 234.72 73.74 205.1 72.55 205.1 149.57 183.78 149.57 171.93 182.75 203.92 182.75 203.92 264.5 234.72 264.5"/>
</svg>